<?xml version="1.0" encoding="UTF-8" standalone="no"?>
<!DOCTYPE svg PUBLIC "-//W3C//DTD SVG 1.1//EN" "http://www.w3.org/Graphics/SVG/1.1/DTD/svg11.dtd">
<svg width="100%" height="100%" viewBox="0 0 373 96" version="1.1" xmlns="http://www.w3.org/2000/svg" xmlns:xlink="http://www.w3.org/1999/xlink" xml:space="preserve" xmlns:serif="http://www.serif.com/" style="fill-rule:evenodd;clip-rule:evenodd;stroke-linecap:round;stroke-linejoin:round;stroke-miterlimit:1.5;">
    <g transform="matrix(1,0,0,1,-0.30976,-4.01792)">
        <g transform="matrix(1.03855,0,0,0.89531,-1661.4,-577.828)">
            <g transform="matrix(0.962885,0,0,1.11693,1599.74,645.394)">
                <path d="M253.068,54.913L278.054,54.913M323.668,7.502C328.268,7.502 332.002,11.236 332.002,15.836C332.002,20.435 328.268,24.169 323.668,24.169C319.069,24.169 315.335,20.435 315.335,15.836C315.335,11.236 319.069,7.502 323.668,7.502ZM352.835,24.169C357.434,24.169 361.168,27.903 361.168,32.502C361.168,37.102 357.434,40.836 352.835,40.836C348.236,40.836 344.502,37.102 344.502,32.502C344.502,27.903 348.236,24.169 352.835,24.169ZM361.168,57.502C365.768,57.502 369.502,61.236 369.502,65.836C369.502,70.435 365.768,74.169 361.168,74.169C356.569,74.169 352.835,70.435 352.835,65.836C352.835,61.236 356.569,57.502 361.168,57.502ZM315.335,40.836C326.764,40.836 336.168,50.24 336.168,61.669L336.168,76.252C336.166,84.251 329.583,90.831 321.585,90.831C315.227,90.831 309.568,86.674 307.668,80.607C305.89,74.87 302.14,71.113 296.418,69.336C290.351,67.435 286.194,61.777 286.194,55.419C286.194,47.428 292.761,40.85 300.752,40.836L315.335,40.836ZM3.794,54.913L38.215,54.913M96.057,81.391L39.256,81.391L39.256,34.222L70.69,34.222C70.751,42.036 73.125,50.933 77.814,59.831C81.471,67.268 88.29,74.704 96.057,81.391ZM160.941,34.222L252.116,34.222L252.116,81.391L135.573,81.391C143.34,74.704 150.159,67.268 153.816,59.831C158.505,50.933 160.88,42.036 160.941,34.222ZM115.815,23.773C125.315,5.744 144.316,5.744 153.816,14.759C163.317,23.773 163.317,41.802 153.816,59.831C147.166,73.352 130.066,86.874 115.815,95.888C101.565,86.874 84.464,73.352 77.814,59.831C68.313,41.802 68.313,23.773 77.814,14.759C87.314,5.744 106.315,5.744 115.815,23.773Z" style="fill:none;stroke:currentColor;stroke-width:6.97px;"/>
            </g>
        </g>
    </g>
</svg>
