<?xml version="1.0" encoding="UTF-8" standalone="no"?>
<!DOCTYPE svg PUBLIC "-//W3C//DTD SVG 1.1//EN" "http://www.w3.org/Graphics/SVG/1.1/DTD/svg11.dtd">
<svg width="100%" height="100%" viewBox="0 0 1214 697" version="1.1" xmlns="http://www.w3.org/2000/svg" xmlns:xlink="http://www.w3.org/1999/xlink" xml:space="preserve" xmlns:serif="http://www.serif.com/" style="fill-rule:evenodd;clip-rule:evenodd;stroke-linecap:round;stroke-linejoin:round;stroke-miterlimit:1.5;">
    <g transform="matrix(0.541399,0,0,0.927788,-265.662,-629.578)">
        <path d="M2713.33,743.082L2713.33,849.501C2713.33,878.868 2672.47,902.71 2622.15,902.71L2211.45,902.71C2161.12,902.71 2120.26,878.868 2120.26,849.501L2120.26,743.082C2120.26,713.715 2161.12,689.873 2211.45,689.873L2622.15,689.873C2672.47,689.873 2713.33,713.715 2713.33,743.082Z" style="fill:none;stroke:black;stroke-width:27.59px;"/>
    </g>
    <g transform="matrix(0.541399,0,0,0.927788,-265.662,-390.7)">
        <path d="M2713.33,743.082L2713.33,849.501C2713.33,878.868 2672.47,902.71 2622.15,902.71L2211.45,902.71C2161.12,902.71 2120.26,878.868 2120.26,849.501L2120.26,743.082C2120.26,713.715 2161.12,689.873 2211.45,689.873L2622.15,689.873C2672.47,689.873 2713.33,713.715 2713.33,743.082Z" style="fill:none;stroke:black;stroke-width:27.59px;"/>
    </g>
    <g transform="matrix(0.541399,0,0,0.927788,-265.662,-151.823)">
        <path d="M2713.33,743.082L2713.33,849.501C2713.33,878.868 2672.47,902.71 2622.15,902.71L2211.45,902.71C2161.12,902.71 2120.26,878.868 2120.26,849.501L2120.26,743.082C2120.26,713.715 2161.12,689.873 2211.45,689.873L2622.15,689.873C2672.47,689.873 2713.33,713.715 2713.33,743.082Z" style="fill:none;stroke:black;stroke-width:27.59px;"/>
    </g>
    <g transform="matrix(1,0,0,1,-1467.87,-1404.11)">
        <rect x="1478.35" y="1451.73" width="586.275" height="85.991" style="fill:none;stroke:black;stroke-width:20.96px;"/>
    </g>
    <g transform="matrix(0.395988,0,0,1,-493.611,-889.166)">
        <rect x="1478.35" y="1451.73" width="586.275" height="85.991" style="fill:none;stroke:black;stroke-width:27.55px;"/>
    </g>
    <g transform="matrix(0.989464,-7.06922e-05,-7.06922e-05,1,-1443.05,-1409.03)">
        <path d="M2063.18,1497.92L2345.55,1499.81" style="fill:none;stroke:black;stroke-width:21.07px;stroke-linecap:square;"/>
    </g>
    <g transform="matrix(1,0,0,1,-1467.87,-1156.08)">
        <path d="M2136.02,1497.92L2345.55,1499.81" style="fill:none;stroke:black;stroke-width:20.96px;stroke-linecap:square;"/>
    </g>
    <g transform="matrix(1,0,0,1,-1244.01,-894.255)">
        <path d="M1567.96,1499.81L2109.13,1499.81" style="fill:none;stroke:black;stroke-width:21.31px;stroke-linecap:square;"/>
    </g>
    <g transform="matrix(1,0,0,1,-1501.8,-1470.12)">
        <path d="M1992.21,1745.53C2029.73,1692.06 2104.77,1692.06 2142.3,1718.79C2179.82,1745.53 2179.82,1799 2142.3,1852.47C2116.03,1892.57 2048.49,1932.67 1992.21,1959.4C1935.92,1932.67 1868.38,1892.57 1842.12,1852.47C1804.6,1799 1804.6,1745.53 1842.12,1718.79C1879.64,1692.06 1954.68,1692.06 1992.21,1745.53Z" style="fill:none;stroke:black;stroke-width:20.96px;"/>
    </g>
</svg>
